<svg width="148" height="111" viewBox="0 0 148 111" fill="none" xmlns="http://www.w3.org/2000/svg">
<path d="M48.943 0.52713C40.9303 0.52713 33.2459 3.71092 27.5801 9.37812L9.08936 27.8734C3.42355 33.5406 0.24054 41.2269 0.24054 49.2416C0.24054 65.9313 13.7668 79.4608 30.4523 79.4608C38.465 79.4608 46.1494 76.2769 51.8152 70.6097L64.6055 57.8165L101.872 20.541C104.578 17.8344 108.248 16.3139 112.074 16.3139C117.324 16.3139 121.919 19.1179 124.443 23.3102C125.213 24.589 127.046 25.0196 128.102 23.964L136.421 15.6422C137.085 14.9786 137.203 13.9386 136.657 13.1755C131.176 5.51758 122.208 0.52713 112.074 0.52713C104.062 0.52713 96.3773 3.71092 90.7115 9.37812L40.6552 59.4469C37.9492 62.1536 34.2792 63.6741 30.4523 63.6741C22.4834 63.6741 16.0234 57.2126 16.0234 49.2416C16.0234 45.4138 17.5436 41.7429 20.2495 39.0363L38.7402 20.541C41.4462 17.8344 45.1162 16.3139 48.943 16.3139C54.1927 16.3139 58.7874 19.118 61.312 23.3105C62.082 24.5894 63.9149 25.02 64.9704 23.9643L73.2902 15.6425C73.9537 14.9789 74.0722 13.9389 73.5261 13.1758C68.0453 5.51773 59.077 0.52713 48.943 0.52713Z" fill="#DB4C4C"/>
<path d="M46.3682 90.0792C43.6622 92.7859 39.9921 94.3064 36.1653 94.3064C30.9164 94.3064 26.322 91.5031 23.7972 87.3115C23.027 86.0328 21.1943 85.6024 20.139 86.658L11.8193 94.9797C11.1558 95.6433 11.0373 96.6835 11.5835 97.4465C17.0645 105.103 26.0323 110.093 36.1653 110.093C44.178 110.093 51.8625 106.909 57.5283 101.242L107.585 51.1733C110.291 48.4667 113.961 46.9462 117.788 46.9462C125.757 46.9462 132.217 53.4078 132.217 61.3787C132.217 65.2064 130.697 68.8774 127.991 71.584L109.5 90.0792C106.794 92.7859 103.124 94.3064 99.2972 94.3064C94.0479 94.3064 89.4532 91.5026 86.9285 87.3105C86.1584 86.0318 84.3256 85.6012 83.2702 86.6569L74.9506 94.9787C74.2871 95.6423 74.1686 96.6824 74.7148 97.4454C80.1955 105.103 89.1637 110.093 99.2972 110.093C107.31 110.093 114.994 106.909 120.66 101.242L139.151 82.7468C144.817 77.0796 148 69.3934 148 61.3787C148 44.689 134.474 31.1594 117.788 31.1594C109.775 31.1594 102.091 34.3432 96.4249 40.0104L46.3682 90.0792Z" fill="#E97878"/>
</svg>
